<?xml version="1.0" encoding="UTF-8"?>
<svg id="Layer_2" data-name="Layer 2" xmlns="http://www.w3.org/2000/svg" xmlns:xlink="http://www.w3.org/1999/xlink" viewBox="0 0 306.61 97.75">
  <defs>
    <style>
      .cls-1 {
        fill: #694da0;
      }

      .cls-2 {
        fill: url(#linear-gradient-2);
      }

      .cls-3 {
        fill: url(#linear-gradient-10);
      }

      .cls-4 {
        fill: url(#linear-gradient-4);
      }

      .cls-5 {
        fill: url(#linear-gradient-3);
      }

      .cls-6 {
        fill: url(#linear-gradient-5);
      }

      .cls-7 {
        fill: url(#linear-gradient-8);
      }

      .cls-8 {
        fill: url(#linear-gradient-7);
      }

      .cls-9 {
        fill: url(#linear-gradient-9);
      }

      .cls-10 {
        fill: url(#linear-gradient-11);
      }

      .cls-11 {
        fill: url(#linear-gradient-6);
      }

      .cls-12 {
        fill: url(#linear-gradient);
      }
    </style>
    <linearGradient id="linear-gradient" x1="51.89" y1="33.32" x2="62.08" y2="50.97" gradientUnits="userSpaceOnUse">
      <stop offset="0" stop-color="#147dc2"/>
      <stop offset=".33" stop-color="#2662ad"/>
      <stop offset=".9" stop-color="#4e2d82"/>
    </linearGradient>
    <linearGradient id="linear-gradient-2" x1="109.68" y1="26.73" x2="132.3" y2="65.91" xlink:href="#linear-gradient"/>
    <linearGradient id="linear-gradient-3" x1="96.81" y1="30.78" x2="115.86" y2="63.77" xlink:href="#linear-gradient"/>
    <linearGradient id="linear-gradient-4" x1="72.67" y1="20.05" x2="100.68" y2="68.58" xlink:href="#linear-gradient"/>
    <linearGradient id="linear-gradient-5" x1="175.59" y1="1.14" x2="184.09" y2="15.86" xlink:href="#linear-gradient"/>
    <linearGradient id="linear-gradient-6" x1="166.3" y1="23.48" x2="192.68" y2="69.16" xlink:href="#linear-gradient"/>
    <linearGradient id="linear-gradient-7" x1="206.9" y1="22.04" x2="233.81" y2="68.66" xlink:href="#linear-gradient"/>
    <linearGradient id="linear-gradient-8" x1="135.21" y1="12.39" x2="169.32" y2="71.47" xlink:href="#linear-gradient"/>
    <linearGradient id="linear-gradient-9" x1="240.4" y1="26.96" x2="263.02" y2="66.13" xlink:href="#linear-gradient"/>
    <linearGradient id="linear-gradient-10" x1="265.94" y1="12.61" x2="300.05" y2="71.69" xlink:href="#linear-gradient"/>
    <linearGradient id="linear-gradient-11" x1="2.72" y1="6.55" x2="34.84" y2="62.17" xlink:href="#linear-gradient"/>
  </defs>
  <g id="_10" data-name="10">
    <g>
      <g>
        <rect class="cls-12" x="47.84" y="35.66" width="18.3" height="12.97"/>
        <rect class="cls-2" x="120.67" y="20.39" width=".63" height="51.87"/>
        <path class="cls-5" d="M117.29,21.68v28.53c0,12.18-9.87,22.04-22.04,22.04h-.94v-1.92h.43c11.13,0,20.15-9.02,20.15-20.15v-27.91c0-.63-.03-1.27-.09-1.89h2.45c.03.43.04.86.04,1.3"/>
        <path class="cls-4" d="M94.31,20.39v51.87h-.21c-12.18,0-22.04-9.87-22.04-22.04v-28.53c0-.43.01-.87.04-1.3h22.22Z"/>
        <path class="cls-6" d="M188.34,8.5c0,4.69-3.8,8.5-8.5,8.5s-8.5-3.81-8.5-8.5,3.81-8.5,8.5-8.5,8.5,3.81,8.5,8.5"/>
        <rect class="cls-11" x="171.66" y="20.38" width="15.66" height="51.87"/>
        <path class="cls-8" d="M247.26,45.35c0,14.86-12.05,26.91-26.91,26.91s-26.91-12.05-26.91-26.91,12.05-26.91,26.91-26.91,26.91,12.05,26.91,26.91"/>
        <path class="cls-7" d="M166.67,40.17v32.83l-41.59-48.31-2.59-3.01-1.12-1.3h25.52c10.93,0,19.79,8.86,19.79,19.79"/>
        <rect class="cls-9" x="251.4" y="20.61" width=".63" height="51.87"/>
        <path class="cls-3" d="M297.39,40.4v32.83l-41.59-48.31-2.59-3.01-1.12-1.3h25.52c10.93,0,19.79,8.86,19.79,19.79"/>
        <path class="cls-10" d="M0,8.12h44.3v14.39h-26.96v12.83h18.81v13.52h-18.81v23.41H0V8.12Z"/>
      </g>
      <g>
        <path class="cls-1" d="M10.66,97.45l6.34-17.37h6.49l6.34,17.37h-5.91l-.73-2.45h-6.09l-.73,2.45h-5.71ZM18.26,91.11h3.79l-.83-2.78c-.07-.2-.14-.45-.23-.73-.08-.29-.17-.59-.25-.91-.08-.32-.17-.64-.25-.95-.08-.31-.16-.58-.23-.82h-.2c-.07.3-.16.65-.27,1.04-.11.39-.22.79-.34,1.2-.12.41-.24.8-.35,1.17l-.83,2.78Z"/>
        <path class="cls-1" d="M31.93,97.45v-17.37h14.04v4.17h-8.46v2.98h7.27v3.99h-7.27v6.24h-5.58Z"/>
        <path class="cls-1" d="M48.77,97.45v-17.37h10.88c1.3,0,2.38.26,3.25.78.87.52,1.52,1.2,1.96,2.05.44.84.66,1.75.66,2.73,0,1.11-.26,2.1-.78,2.97-.52.87-1.23,1.56-2.12,2.08l3.41,6.77h-6.26l-2.65-5.83h-2.75v5.83h-5.58ZM54.35,87.75h3.91c.44,0,.81-.17,1.11-.52.3-.34.45-.8.45-1.38,0-.35-.07-.66-.2-.93-.14-.27-.32-.48-.56-.64-.24-.16-.5-.24-.81-.24h-3.91v3.71Z"/>
        <path class="cls-1" d="M68.41,97.45v-17.37h5.58v17.37h-5.58Z"/>
        <path class="cls-1" d="M86.01,97.75c-1.97,0-3.62-.34-4.96-1.01-1.34-.67-2.35-1.68-3.03-3.02-.68-1.34-1.02-2.99-1.02-4.96,0-2.96.76-5.2,2.29-6.72,1.52-1.51,3.77-2.27,6.73-2.27,1.68,0,3.15.28,4.41.85,1.25.56,2.23,1.4,2.92,2.51.69,1.11,1.04,2.47,1.04,4.09h-5.33c0-.67-.12-1.25-.35-1.74-.24-.49-.58-.87-1.02-1.14-.45-.27-1.01-.4-1.68-.4-.79,0-1.43.17-1.91.5-.48.34-.83.81-1.05,1.41-.22.61-.33,1.31-.33,2.1v1.62c0,.79.11,1.49.34,2.1s.58,1.08,1.05,1.41c.47.34,1.09.5,1.84.5s1.35-.13,1.83-.38.84-.62,1.09-1.1c.24-.48.37-1.05.37-1.7h5.15c0,1.58-.33,2.92-.98,4.01-.66,1.09-1.61,1.92-2.85,2.49-1.25.56-2.75.85-4.52.85Z"/>
        <path class="cls-1" d="M95.76,97.45l6.34-17.37h6.49l6.34,17.37h-5.91l-.73-2.45h-6.09l-.73,2.45h-5.71ZM103.36,91.11h3.79l-.83-2.78c-.07-.2-.14-.45-.23-.73-.08-.29-.17-.59-.25-.91-.08-.32-.17-.64-.25-.95-.08-.31-.16-.58-.23-.82h-.2c-.07.3-.16.65-.27,1.04-.11.39-.22.79-.34,1.2-.12.41-.24.8-.35,1.17l-.83,2.78Z"/>
        <path class="cls-1" d="M129.37,97.75c-1.2,0-2.31-.09-3.35-.26-1.04-.18-1.94-.48-2.73-.91-.78-.43-1.4-1.03-1.84-1.79-.45-.77-.67-1.73-.67-2.89v-.14c0-.06,0-.12.03-.19h5.28c-.02.07-.03.13-.03.19v.16c0,.5.12.89.35,1.16.24.27.57.45,1,.54.43.09.91.14,1.45.14.2,0,.42,0,.64-.01.23,0,.45-.03.66-.08.21-.04.4-.1.58-.19.18-.08.32-.2.42-.34.1-.14.15-.32.15-.54,0-.32-.14-.57-.43-.76-.29-.18-.67-.34-1.16-.48-.49-.13-1.04-.26-1.64-.38-.61-.12-1.24-.26-1.89-.42-.66-.16-1.29-.37-1.89-.62-.61-.25-1.15-.58-1.64-.97-.49-.4-.88-.89-1.16-1.49-.29-.6-.43-1.32-.43-2.16,0-1.01.21-1.87.63-2.58.42-.71,1-1.28,1.73-1.72.73-.44,1.57-.76,2.5-.96.93-.2,1.92-.3,2.94-.3s2.02.11,2.94.32c.92.21,1.73.53,2.44.97.71.44,1.26.99,1.67,1.67.4.67.61,1.47.63,2.4v.3h-5.23v-.1c0-.3-.08-.59-.23-.86-.15-.27-.39-.49-.72-.66s-.76-.25-1.3-.25c-.5,0-.93.05-1.28.15-.35.1-.6.24-.77.42s-.25.37-.25.57c0,.32.14.58.43.78.29.2.67.37,1.16.5.49.14,1.04.26,1.64.38.61.12,1.24.25,1.89.39.66.14,1.29.33,1.89.57.61.24,1.15.54,1.64.92.49.38.87.85,1.16,1.4.29.56.43,1.24.43,2.05,0,1.43-.33,2.59-1,3.48-.67.89-1.57,1.54-2.73,1.96-1.15.41-2.46.62-3.93.62Z"/>
        <path class="cls-1" d="M148.46,97.75c-1.82,0-3.37-.27-4.66-.82-1.29-.55-2.28-1.36-2.97-2.45-.69-1.09-1.04-2.43-1.04-4.03v-10.38h5.58v10.3c0,.93.25,1.69.76,2.3.5.61,1.27.91,2.3.91s1.8-.3,2.31-.91c.51-.61.77-1.37.77-2.3v-10.3h5.58v10.38c0,1.6-.34,2.94-1.02,4.03-.68,1.09-1.67,1.9-2.95,2.45-1.29.55-2.84.82-4.66.82Z"/>
        <path class="cls-1" d="M160.84,97.45v-17.37h7.78l1.59,6.11c.07.22.16.58.29,1.09s.26,1.05.4,1.64c.14.59.27,1.14.39,1.64h.2c.08-.37.19-.81.32-1.33.13-.51.26-1.04.39-1.58.13-.54.25-1.03.35-1.46l1.59-6.11h7.5v17.37h-5.33v-6.26c0-.67,0-1.37.01-2.08,0-.72.02-1.39.03-2.03,0-.64.01-1.17.01-1.59h-.2c-.05.34-.12.73-.21,1.19-.09.45-.19.9-.29,1.35s-.2.84-.3,1.17l-2.25,8.26h-4.17l-2.27-8.26c-.08-.34-.18-.73-.29-1.17-.11-.45-.21-.9-.29-1.35-.08-.46-.16-.84-.23-1.16h-.2c.02.42.03.95.05,1.59.02.64.03,1.31.04,2.02,0,.71.01,1.4.01,2.07v6.26h-4.92Z"/>
        <path class="cls-1" d="M185.38,97.45v-17.37h7.78l1.59,6.11c.07.22.16.58.29,1.09s.26,1.05.4,1.64c.14.59.27,1.14.39,1.64h.2c.08-.37.19-.81.32-1.33.13-.51.26-1.04.39-1.58.13-.54.25-1.03.35-1.46l1.59-6.11h7.5v17.37h-5.33v-6.26c0-.67,0-1.37.01-2.08,0-.72.02-1.39.03-2.03,0-.64.01-1.17.01-1.59h-.2c-.05.34-.12.73-.21,1.19-.09.45-.19.9-.29,1.35s-.2.84-.3,1.17l-2.25,8.26h-4.17l-2.27-8.26c-.08-.34-.18-.73-.29-1.17-.11-.45-.21-.9-.29-1.35-.08-.46-.16-.84-.23-1.16h-.2c.02.42.03.95.05,1.59.02.64.03,1.31.04,2.02,0,.71.01,1.4.01,2.07v6.26h-4.92Z"/>
        <path class="cls-1" d="M209.92,97.45v-17.37h5.58v17.37h-5.58Z"/>
        <path class="cls-1" d="M223.66,97.45v-12.93h-5.71v-4.44h16.97v4.44h-5.68v12.93h-5.58Z"/>
        <path class="cls-1" d="M241.39,97.45v-1.21c0-.71.15-1.38.46-2.01.3-.63.71-1.23,1.22-1.79.51-.56,1.08-1.1,1.7-1.62.62-.51,1.26-1.01,1.92-1.5.67-.5,1.3-.97,1.89-1.39.59-.42,1.07-.85,1.44-1.29.37-.44.56-.93.56-1.46,0-.32-.08-.62-.23-.9s-.38-.5-.69-.68c-.31-.18-.73-.26-1.25-.26s-.96.1-1.33.3c-.36.2-.64.48-.83.85-.19.36-.29.77-.29,1.22v.5h-4.5c-.02-.1-.03-.2-.03-.29v-.27c0-1.19.27-2.23.82-3.11.55-.87,1.37-1.56,2.47-2.05s2.49-.73,4.15-.73c1.03,0,1.95.12,2.78.37.82.24,1.53.6,2.11,1.06.58.46,1.03,1.01,1.34,1.65.31.64.47,1.36.47,2.15s-.14,1.47-.43,2.1c-.29.62-.69,1.2-1.21,1.74-.52.54-1.12,1.06-1.79,1.57-.67.5-1.41,1.02-2.2,1.54-.4.27-.73.49-.98.67s-.44.31-.56.39c-.12.08-.19.14-.23.18h7.6v4.27h-14.39Z"/>
        <path class="cls-1" d="M265.43,97.75c-1.43,0-2.63-.21-3.59-.64-.96-.43-1.72-1.04-2.27-1.83-.56-.79-.95-1.74-1.19-2.84-.24-1.1-.35-2.33-.35-3.67s.12-2.57.35-3.67c.24-1.1.63-2.05,1.19-2.84.56-.79,1.31-1.4,2.27-1.83.96-.43,2.15-.64,3.59-.64s2.65.21,3.6.64,1.7,1.04,2.25,1.83c.55.79.94,1.74,1.17,2.84.24,1.1.35,2.33.35,3.67s-.12,2.57-.35,3.67c-.24,1.1-.63,2.05-1.17,2.84-.55.79-1.3,1.4-2.25,1.83-.95.43-2.15.64-3.6.64ZM265.43,94.34c.59,0,1.06-.15,1.41-.45s.61-.77.76-1.41c.15-.64.23-1.46.23-2.47v-2.5c0-1.03-.08-1.86-.23-2.49-.15-.63-.4-1.09-.76-1.39-.35-.29-.82-.44-1.41-.44s-1.06.15-1.41.44c-.35.29-.61.76-.77,1.39-.16.63-.24,1.46-.24,2.49v2.5c0,1.01.08,1.83.24,2.47.16.64.42,1.11.77,1.41s.82.45,1.41.45Z"/>
        <path class="cls-1" d="M275.07,97.45v-1.21c0-.71.15-1.38.46-2.01.3-.63.71-1.23,1.22-1.79.51-.56,1.08-1.1,1.7-1.62.62-.51,1.26-1.01,1.92-1.5.67-.5,1.3-.97,1.89-1.39.59-.42,1.07-.85,1.44-1.29.37-.44.56-.93.56-1.46,0-.32-.08-.62-.23-.9s-.38-.5-.69-.68c-.31-.18-.73-.26-1.25-.26s-.96.1-1.33.3c-.36.2-.64.48-.83.85-.19.36-.29.77-.29,1.22v.5h-4.5c-.02-.1-.03-.2-.03-.29v-.27c0-1.19.27-2.23.82-3.11.55-.87,1.37-1.56,2.47-2.05s2.49-.73,4.15-.73c1.03,0,1.95.12,2.78.37.82.24,1.53.6,2.11,1.06.58.46,1.03,1.01,1.34,1.65.31.64.47,1.36.47,2.15s-.14,1.47-.43,2.1c-.29.62-.69,1.2-1.21,1.74-.52.54-1.12,1.06-1.79,1.57-.67.5-1.41,1.02-2.2,1.54-.4.27-.73.49-.98.67s-.44.31-.56.39c-.12.08-.19.14-.23.18h7.6v4.27h-14.39Z"/>
        <path class="cls-1" d="M299.24,97.75c-1.26,0-2.37-.17-3.31-.52-.94-.34-1.73-.87-2.35-1.57-.62-.7-1.09-1.59-1.4-2.66-.31-1.08-.47-2.35-.47-3.81,0-1.68.16-3.12.47-4.32.31-1.19.78-2.17,1.4-2.92.62-.75,1.41-1.3,2.35-1.65.94-.35,2.05-.53,3.31-.53,1.38,0,2.59.22,3.62.67,1.04.45,1.85,1.1,2.44,1.97.59.87.88,1.94.88,3.22h-4.5c0-.56-.1-1.01-.29-1.38-.19-.36-.47-.63-.82-.81s-.77-.27-1.26-.27c-.67,0-1.2.15-1.57.46s-.62.79-.76,1.45c-.14.67-.2,1.53-.2,2.59.35-.32.75-.57,1.17-.76s.86-.32,1.3-.42c.44-.09.83-.14,1.19-.14,1.14,0,2.18.2,3.12.61.93.4,1.67,1,2.22,1.79.55.79.82,1.77.82,2.93,0,1.3-.3,2.39-.91,3.3s-1.46,1.59-2.56,2.06-2.4.71-3.9.71ZM299.24,94.34c.54,0,.99-.09,1.36-.28.37-.18.65-.46.85-.82.19-.36.29-.8.29-1.33s-.1-.99-.29-1.36c-.19-.37-.47-.66-.83-.86-.36-.2-.81-.3-1.35-.3s-.97.1-1.34.29c-.37.19-.65.47-.85.83-.19.36-.29.81-.29,1.35s.09.97.28,1.34c.18.37.46.65.83.85.37.19.82.29,1.34.29Z"/>
      </g>
    </g>
  </g>
</svg>